<?xml version="1.0" standalone="no"?> <!DOCTYPE svg PUBLIC "-//W3C//DTD SVG 1.0//EN" "http://www.w3.org/TR/2001/REC-SVG-20010904/DTD/svg10.dtd" > <svg xmlns="http://www.w3.org/2000/svg" width="100%" height="100%">
<defs >
<font horiz-adv-x="630" ><font-face
    font-family="Inversionz Unboxed"
    units-per-em="1024"
    panose-1="0 0 4 0 0 0 0 0 0 0"
    ascent="640"
    descent="-64"
    alphabetic="0" />
<missing-glyph horiz-adv-x="320" />
<glyph unicode=" " glyph-name="space" horiz-adv-x="640" />
<glyph unicode="!" glyph-name="exclam" horiz-adv-x="640" d="M256 448V256H320V448H256ZM256 192V128H320V192H256Z" />
<glyph unicode="&quot;" glyph-name="quotedbl" horiz-adv-x="640" d="M256 320V448H192V320H256ZM384 320V448H320V320H384Z" />
<glyph unicode="#" glyph-name="numbersign" horiz-adv-x="640" d="M128 256V192H192V128H256V192H320V128H384V192H448V256H384V320H448V384H384V448H320V384H256V448H192V384H128V320H192V256H128ZM320 320V256H256V320H320Z" />
<glyph unicode="$" glyph-name="dollar" horiz-adv-x="640" d="M320 512H256V448H128V256H256V192H128V128H256V64H320V128H448V320H320V384H448V448H320V512ZM256 320H192V384H256V320ZM384 256V192H320V256H384Z" />
<glyph unicode="%" glyph-name="percent" horiz-adv-x="640" d="M192 128L448 448H371L113 128H192ZM192 320V384H128V320H192ZM448 192V256H384V192H448Z" />
<glyph unicode="&amp;" glyph-name="ampersand" horiz-adv-x="640" d="M128 320V256H256V128H320V256H448V320H320V448H256V320H128Z" />
<glyph unicode="&apos;" glyph-name="quotesingle" horiz-adv-x="640" d="M320 320V448H256V320H320Z" />
<glyph unicode="(" glyph-name="parenleft" horiz-adv-x="640" d="M448 512H128V64H448V128H192V448H448V512Z" />
<glyph unicode=")" glyph-name="parenright" horiz-adv-x="640" d="M128 448H384V128H128V64H448V512H128V448Z" />
<glyph unicode="*" glyph-name="asterisk" horiz-adv-x="640" d="M192 384V320H256V256H320V320H384V384H320V448H256V384H192Z" />
<glyph unicode="+" glyph-name="plus" horiz-adv-x="640" d="M128 320V256H256V128H320V256H448V320H320V448H256V320H128Z" />
<glyph unicode="," glyph-name="comma" horiz-adv-x="640" d="M256 256V128H320V256H256Z" />
<glyph unicode="-" glyph-name="hyphen" horiz-adv-x="640" d="M448 256V320H128V256H448Z" />
<glyph unicode="." glyph-name="period" horiz-adv-x="640" d="M320 128V192H256V128H320Z" />
<glyph unicode="/" glyph-name="slash" horiz-adv-x="640" d="M192 128L448 448H371L113 128H192Z" />
<glyph unicode="0" glyph-name="zero" horiz-adv-x="640" d="M448 128V448H128V128H448ZM192 192V384H384V192H192Z" />
<glyph unicode="1" glyph-name="one" horiz-adv-x="640" d="M256 448V128H320V448H256Z" />
<glyph unicode="2" glyph-name="two" horiz-adv-x="640" d="M128 384H384V320H128V128H448V192H192V256H448V448H128V384Z" />
<glyph unicode="3" glyph-name="three" horiz-adv-x="640" d="M448 448H128V384H384V320H128V256H384V192H128V128H448V448Z" />
<glyph unicode="4" glyph-name="four" horiz-adv-x="640" d="M128 448V256H384V128H448V448H384V320H192V448H128Z" />
<glyph unicode="5" glyph-name="five" horiz-adv-x="640" d="M448 448H128V256H384V192H128V128H448V320H192V384H448V448Z" />
<glyph unicode="6" glyph-name="six" horiz-adv-x="640" d="M128 448V128H448V320H192V384H448V448H128ZM384 256V192H192V256H384Z" />
<glyph unicode="7" glyph-name="seven" horiz-adv-x="640" d="M128 384H304L128 128H217L448 448H128V384Z" />
<glyph unicode="8" glyph-name="eight" horiz-adv-x="640" d="M128 448V128H448V448H128ZM384 384V320H192V384H384ZM384 256V192H192V256H384Z" />
<glyph unicode="9" glyph-name="nine" horiz-adv-x="640" d="M448 128V448H128V256H384V192H128V128H448ZM384 384V320H192V384H384Z" />
<glyph unicode=":" glyph-name="colon" horiz-adv-x="640" d="M256 384V320H320V384H256ZM256 256V192H320V256H256Z" />
<glyph unicode=";" glyph-name="semicolon" horiz-adv-x="640" d="M256 384V320H320V384H256ZM256 256V128H320V256H256Z" />
<glyph unicode="&lt;" glyph-name="less" horiz-adv-x="640" d="M128 320V256L448 128V192L192 289L448 384V448L128 320Z" />
<glyph unicode="=" glyph-name="equal" horiz-adv-x="640" d="M448 320V384H128V320H448ZM448 192V256H128V192H448Z" />
<glyph unicode="&gt;" glyph-name="greater" horiz-adv-x="640" d="M128 448V384L384 289L128 192V128L448 256V320L128 448Z" />
<glyph unicode="?" glyph-name="question" horiz-adv-x="640" d="M384 384V320H256V256H448V448H128V384H384ZM256 192V128H320V192H256Z" />
<glyph unicode="@" glyph-name="at" horiz-adv-x="640" d="M360 352T357 358Q357 364 352 370Q344 378 331 378Q307 378 281 357Q254 334 239 303Q226 278 226 259Q226 245 234 235Q242 225 255 225Q269 225 286 242Q295 251 303 264Q301 255 301 250Q301 238
310 229Q324 214 343 214Q365 211 383 223T421 266T448 346Q448 375 435 400Q424 423 403 436Q377 454 344 454Q283 454 226 418Q180 388 154 343Q126 296 126 247Q126 212 143 182Q157 157 185 142Q211 128 240 128Q261 128 286 135Q326 146 362 169L340 201Q312
186 299 180Q262 166 241 167T209 175T190 192T178 216T174 242T175 271T185 306T204 346T238 382T280 407T322 420T360 419T393 394Q407 367 404 346Q403 309 387 281T361 244T345 235T333 240Q325 247 325 259Q325 272 333 291Q339 308 348 326L357 346Q360 352
357 358ZM323 333T317 322Q299 286 279 261Q268 248 258 248Q255 248 252 250Q249 254 249 259Q249 285 278 321Q299 348 310 349T324 348T327 341Q323 333 317 322Z" />
<glyph unicode="A" glyph-name="A" horiz-adv-x="640" d="M350 192L375 128H448L320 448H256L128 128H201L226 192H350ZM251 256L288 352L325 256H251Z" />
<glyph unicode="B" glyph-name="B" horiz-adv-x="640" d="M128 448V128H448V448H128ZM384 384V320H192V384H384ZM384 256V192H192V256H384Z" />
<glyph unicode="C" glyph-name="C" horiz-adv-x="640" d="M128 128H448V192H192V384H448V448H128V128Z" />
<glyph unicode="D" glyph-name="D" horiz-adv-x="640" d="M384 128L448 192V384L384 448H128V128H384ZM192 384H352L384 349V224L352 192H192V384Z" />
<glyph unicode="E" glyph-name="E" horiz-adv-x="640" d="M128 128H448V192H192V256H448V320H192V384H448V448H128V128Z" />
<glyph unicode="F" glyph-name="F" horiz-adv-x="640" d="M128 128H192V256H448V320H192V384H448V448H128V128Z" />
<glyph unicode="G" glyph-name="G" horiz-adv-x="640" d="M448 320H320V256H384V192H192V384H448V448H128V128H448V320Z" />
<glyph unicode="H" glyph-name="H" horiz-adv-x="640" d="M128 448V128H192V256H384V128H448V448H384V320H192V448H128Z" />
<glyph unicode="I" glyph-name="I" horiz-adv-x="640" d="M256 448V128H320V448H256Z" />
<glyph unicode="J" glyph-name="J" horiz-adv-x="640" d="M256 448V384H384V192H192V256H128V128H448V448H256Z" />
<glyph unicode="K" glyph-name="K" horiz-adv-x="640" d="M192 128V256L354 128H448L256 284L448 448H355L192 320V448H128V128H192Z" />
<glyph unicode="L" glyph-name="L" horiz-adv-x="640" d="M128 128H448V192H192V448H128V128Z" />
<glyph unicode="M" glyph-name="M" horiz-adv-x="640" d="M192 128V384H256V128H320V384H384V128H448V448H128V128H192Z" />
<glyph unicode="N" glyph-name="N" horiz-adv-x="640" d="M192 128V348L384 128H448V448H384V221L192 448H128V128H192Z" />
<glyph unicode="O" glyph-name="O" horiz-adv-x="640" d="M448 128V448H128V128H448ZM192 192V384H384V192H192Z" />
<glyph unicode="P" glyph-name="P" horiz-adv-x="640" d="M192 128V256H448V448H128V128H192ZM384 384V320H192V384H384Z" />
<glyph unicode="Q" glyph-name="Q" horiz-adv-x="640" d="M256 64H320V128H448V448H128V128H256V64ZM256 192H192V384H384V192H320V256H256V192Z" />
<glyph unicode="R" glyph-name="R" horiz-adv-x="640" d="M384 384V320H192V384H384ZM369 128H448L335 256H448V448H128V128H192V256H256L369 128Z" />
<glyph unicode="S" glyph-name="S" horiz-adv-x="640" d="M448 448H128V256H384V192H128V128H448V320H192V384H448V448Z" />
<glyph unicode="T" glyph-name="T" horiz-adv-x="640" d="M128 384H256V128H320V384H448V448H128V384Z" />
<glyph unicode="U" glyph-name="U" horiz-adv-x="640" d="M128 448V128H448V448H384V192H192V448H128Z" />
<glyph unicode="V" glyph-name="V" horiz-adv-x="640" d="M256 128H320L448 448H375L288 224L201 448H128L256 128Z" />
<glyph unicode="W" glyph-name="W" horiz-adv-x="640" d="M128 448V128H448V448H384V192H320V448H256V192H192V448H128Z" />
<glyph unicode="X" glyph-name="X" horiz-adv-x="640" d="M248 288L128 448H208L288 341L368 448H448L328 288L448 128H368L288 235L208 128H128L248 288Z" />
<glyph unicode="Y" glyph-name="Y" horiz-adv-x="640" d="M320 128V256L448 448H369L288 336L208 448H128L256 256V128H320Z" />
<glyph unicode="Z" glyph-name="Z" horiz-adv-x="640" d="M128 384H320L128 128H448V192H256L448 448H128V384Z" />
<glyph unicode="[" glyph-name="bracketleft" horiz-adv-x="640" d="M448 512H128V64H448V128H192V448H448V512Z" />
<glyph unicode="\" glyph-name="backslash" horiz-adv-x="640" d="M448 128L190 448H113L369 128H448Z" />
<glyph unicode="]" glyph-name="bracketright" horiz-adv-x="640" d="M128 448H384V128H128V64H448V512H128V448Z" />
<glyph unicode="^" glyph-name="asciicircum" horiz-adv-x="640" d="M256 448L290 488L320 448H384L289 576L192 448H256Z" />
<glyph unicode="_" glyph-name="underscore" horiz-adv-x="640" d="M448 64V128H128V64H448Z" />
<glyph unicode="`" glyph-name="grave" horiz-adv-x="576" d="M256 448H320L256 576H192L256 448Z" />
<glyph unicode="a" glyph-name="a" horiz-adv-x="640" d="M350 192L375 128H448L320 448H256L128 128H201L226 192H350ZM251 256L288 352L325 256H251Z" />
<glyph unicode="b" glyph-name="b" horiz-adv-x="640" d="M128 448V128H448V448H128ZM384 320H224V256H384V192H192V384H384V320Z" />
<glyph unicode="c" glyph-name="c" horiz-adv-x="640" d="M128 128H448V192H192V384H448V448H128V128Z" />
<glyph unicode="d" glyph-name="d" horiz-adv-x="640" d="M384 128L448 192V384L384 448H128V128H384ZM192 384H352L384 349V224L352 192H192V384Z" />
<glyph unicode="e" glyph-name="e" horiz-adv-x="640" d="M128 448H448V384H192V192H448V128H128V448ZM224 320H448V256H224V320Z" />
<glyph unicode="f" glyph-name="f" horiz-adv-x="640" d="M128 128H192V256H448V320H192V384H448V448H128V128Z" />
<glyph unicode="g" glyph-name="g" horiz-adv-x="640" d="M448 320H320V256H384V192H192V384H448V448H128V128H448V320Z" />
<glyph unicode="h" glyph-name="h" horiz-adv-x="640" d="M128 448V128H192V256H384V128H448V448H384V320H192V448H128Z" />
<glyph unicode="i" glyph-name="i" horiz-adv-x="640" d="M256 448V128H320V448H256Z" />
<glyph unicode="j" glyph-name="j" horiz-adv-x="640" d="M384 448V192H192V256H128V128H448V448H384Z" />
<glyph unicode="k" glyph-name="k" horiz-adv-x="640" d="M192 128V256L354 128H448L256 284L448 448H355L192 320V448H128V128H192Z" />
<glyph unicode="l" glyph-name="l" horiz-adv-x="640" d="M128 128H448V192H192V448H128V128Z" />
<glyph unicode="m" glyph-name="m" horiz-adv-x="640" d="M192 128V384H256V128H320V384H384V128H448V448H128V128H192Z" />
<glyph unicode="n" glyph-name="n" horiz-adv-x="640" d="M192 128V348L384 128H448V448H384V221L192 448H128V128H192Z" />
<glyph unicode="o" glyph-name="o" horiz-adv-x="640" d="M448 128V448H128V128H448ZM192 192V384H384V192H192Z" />
<glyph unicode="p" glyph-name="p" horiz-adv-x="640" d="M128 128V448H448V256H224V320H384V384H192V128H128Z" />
<glyph unicode="q" glyph-name="q" horiz-adv-x="640" d="M313 192L256 256H334L384 200V384H192V192H313ZM448 128H128V448H448V128Z" />
<glyph unicode="r" glyph-name="r" horiz-adv-x="640" d="M384 384V320H192V384H384ZM369 128H448L335 256H448V448H128V128H192V256H256L369 128Z" />
<glyph unicode="s" glyph-name="s" horiz-adv-x="640" d="M448 448H128V256H384V192H128V128H448V320H192V384H448V448Z" />
<glyph unicode="t" glyph-name="t" horiz-adv-x="640" d="M128 384H256V128H320V384H448V448H128V384Z" />
<glyph unicode="u" glyph-name="u" horiz-adv-x="640" d="M128 448V128H448V448H384V192H192V448H128Z" />
<glyph unicode="v" glyph-name="v" horiz-adv-x="640" d="M256 128H320L448 448H375L288 224L201 448H128L256 128Z" />
<glyph unicode="w" glyph-name="w" horiz-adv-x="640" d="M128 448V128H448V448H384V192H320V448H256V192H192V448H128Z" />
<glyph unicode="x" glyph-name="x" horiz-adv-x="640" d="M128 128H208L288 235L368 128H448L328 288L448 448H368L288 341L208 448H128L248 288L128 128Z" />
<glyph unicode="y" glyph-name="y" horiz-adv-x="640" d="M320 128V256L448 448H369L288 336L208 448H128L256 256V128H320Z" />
<glyph unicode="z" glyph-name="z" horiz-adv-x="640" d="M128 384H320L128 128H448V192H256L448 448H128V384Z" />
<glyph unicode="{" glyph-name="braceleft" horiz-adv-x="640" d="M448 512H128V64H448V128H192V448H448V512Z" />
<glyph unicode="|" glyph-name="bar" horiz-adv-x="640" d="M320 64V512H256V64H320Z" />
<glyph unicode="}" glyph-name="braceright" horiz-adv-x="640" d="M128 448H384V128H128V64H448V512H128V448Z" />
<glyph unicode="~" glyph-name="asciitilde" horiz-adv-x="640" d="M192 229L256 277L320 229L384 280V357L320 308L256 356L192 305V229Z" />
</font>
</defs>
</svg>
