<svg width="26" height="26" viewBox="0 0 26 26" fill="none" xmlns="http://www.w3.org/2000/svg">
<path d="M26 13C26 15.9063 25.0262 18.7287 23.234 21.0166C21.4418 23.3045 18.9347 24.9258 16.113 25.6218C13.2913 26.3177 10.3178 26.0481 7.6673 24.8559C5.01682 23.6637 2.84226 21.6178 1.49088 19.0449C0.13951 16.4719 -0.310731 13.5203 0.212063 10.6615C0.734858 7.80264 2.20053 5.20142 4.37503 3.27324C6.54952 1.34506 9.30741 0.20113 12.2083 0.0241317C15.1091 -0.152867 17.9856 0.647276 20.3784 2.29678L18.5702 4.91975C16.7638 3.67448 14.5923 3.07042 12.4023 3.20404C10.2123 3.33766 8.1303 4.20126 6.48869 5.65691C4.84709 7.11257 3.7406 9.07632 3.34592 11.2346C2.95124 13.3928 3.29115 15.6211 4.31135 17.5635C5.33155 19.5059 6.97321 21.0504 8.97415 21.9505C10.9751 22.8505 13.2199 23.054 15.3501 22.5286C17.4803 22.0033 19.373 20.7792 20.726 19.052C22.079 17.3248 22.8142 15.194 22.8142 13H26Z" fill="#69E6EC"/>
</svg>
