<svg width="52" height="48" viewBox="0 0 52 48" fill="none" xmlns="http://www.w3.org/2000/svg">
<path d="M48.5063 0.5L28.9993 14.9854L32.6071 6.4371L48.5063 0.5Z" fill="#E2761B" stroke="#E2761B" stroke-linecap="round" stroke-linejoin="round"/>
<path d="M3.47034 0.5L22.8229 15.1284L19.3908 6.4371L3.47034 0.5Z" fill="#E4761B" stroke="#E4761B" stroke-linecap="round" stroke-linejoin="round"/>
<path d="M41.4899 34.0888L36.2944 42.05L47.4115 45.1093L50.608 34.2665L41.4899 34.0888Z" fill="#E4761B" stroke="#E4761B" stroke-linecap="round" stroke-linejoin="round"/>
<path d="M1.41138 34.2646L4.58851 45.1074L15.7056 42.0481L10.5102 34.0869L1.41138 34.2646Z" fill="#E4761B" stroke="#E4761B" stroke-linecap="round" stroke-linejoin="round"/>
<path d="M15.0703 20.6367L11.9801 25.3222L23.0199 25.8128L22.6337 13.9502L15.0703 20.6367Z" fill="#E4761B" stroke="#E4761B" stroke-linecap="round" stroke-linejoin="round"/>
<path d="M36.9008 20.6367L29.2544 13.8131L28.9995 25.8128L40.02 25.3223L36.9008 20.6367Z" fill="#E4761B" stroke="#E4761B" stroke-linecap="round" stroke-linejoin="round"/>
<path d="M15.7058 42.05L22.3324 38.815L16.6078 34.3438L15.7058 42.05Z" fill="#E4761B" stroke="#E4761B" stroke-linecap="round" stroke-linejoin="round"/>
<path d="M29.6465 38.815L36.2943 42.05L35.3731 34.3438L29.6465 38.815Z" fill="#E4761B" stroke="#E4761B" stroke-linecap="round" stroke-linejoin="round"/>
<path d="M36.2942 42.0501L29.6464 38.815L30.1756 43.149L30.1176 44.9723L36.2942 42.0501Z" fill="#D7C1B3" stroke="#D7C1B3" stroke-linecap="round" stroke-linejoin="round"/>
<path d="M15.7056 42.0501L21.886 44.9723L21.8474 43.149L22.338 38.815L15.7056 42.0501Z" fill="#D7C1B3" stroke="#D7C1B3" stroke-linecap="round" stroke-linejoin="round"/>
<path d="M21.9807 31.4815L16.4512 29.8533L20.3526 28.0687L21.9807 31.4815Z" fill="#233447" stroke="#233447" stroke-linecap="round" stroke-linejoin="round"/>
<path d="M29.9999 31.4815L31.628 28.0687L35.5488 29.8533L29.9999 31.4815Z" fill="#233447" stroke="#233447" stroke-linecap="round" stroke-linejoin="round"/>
<path d="M15.7055 42.05L16.6461 34.0888L10.5082 34.2646L15.7055 42.05Z" fill="#CD6116" stroke="#CD6116" stroke-linecap="round" stroke-linejoin="round"/>
<path d="M35.3536 34.0888L36.2942 42.05L41.4897 34.2665L35.3536 34.0888Z" fill="#CD6116" stroke="#CD6116" stroke-linecap="round" stroke-linejoin="round"/>
<path d="M40.0216 25.3242L29.0011 25.8148L30.0209 31.4814L31.649 28.0706L35.5698 29.8552L40.0216 25.3242Z" fill="#CD6116" stroke="#CD6116" stroke-linecap="round" stroke-linejoin="round"/>
<path d="M16.4509 29.8533L20.3716 28.0687L21.9785 31.4795L23.0176 25.8128L11.9797 25.3242L16.4509 29.8533Z" fill="#CD6116" stroke="#CD6116" stroke-linecap="round" stroke-linejoin="round"/>
<path d="M11.9801 25.3242L16.6154 34.3438L16.459 29.8533L11.9801 25.3242Z" fill="#E4751F" stroke="#E4751F" stroke-linecap="round" stroke-linejoin="round"/>
<path d="M35.5664 29.8533L35.3733 34.3438L40.0202 25.3242L35.5664 29.8533Z" fill="#E4751F" stroke="#E4751F" stroke-linecap="round" stroke-linejoin="round"/>
<path d="M23.02 25.8147L21.981 31.4814L23.275 38.1679L23.5685 29.3646L23.02 25.8147Z" fill="#E4751F" stroke="#E4751F" stroke-linecap="round" stroke-linejoin="round"/>
<path d="M28.9995 25.8147L28.4703 29.3434L28.706 38.1679L30.0193 31.4814L28.9995 25.8147Z" fill="#E4751F" stroke="#E4751F" stroke-linecap="round" stroke-linejoin="round"/>
<path d="M30.0191 31.4815L28.7058 38.168L29.6464 38.815L35.371 34.3438L35.5642 29.8533L30.0191 31.4815Z" fill="#F6851B" stroke="#F6851B" stroke-linecap="round" stroke-linejoin="round"/>
<path d="M16.4512 29.8533L16.6076 34.3438L22.3323 38.815L23.2729 38.168L21.9788 31.4815L16.4512 29.8533Z" fill="#F6851B" stroke="#F6851B" stroke-linecap="round" stroke-linejoin="round"/>
<path d="M30.1175 44.9722L30.1754 43.149L29.6848 42.7183H22.2934L21.8434 43.149L21.882 44.9722L15.7015 42.05L17.8589 43.8153L22.2316 46.8554H29.7408L34.1328 43.8153L36.2902 42.05L30.1175 44.9722Z" fill="#C0AD9E" stroke="#C0AD9E" stroke-linecap="round" stroke-linejoin="round"/>
<path d="M29.6483 38.8149L28.7077 38.1679H23.2766L22.336 38.8149L21.8455 43.149L22.2974 42.7183H29.6889L30.1794 43.149L29.6483 38.8149Z" fill="#161616" stroke="#161616" stroke-linecap="round" stroke-linejoin="round"/>
<path d="M49.3332 15.9318L51 7.932L48.5104 0.5L29.6465 14.5007L36.9008 20.6386L47.1565 23.6381L49.4317 20.9901L48.4505 20.2852L50.0188 18.854L48.804 17.9134L50.3723 16.7179L49.3332 15.9318Z" fill="#763D16" stroke="#763D16" stroke-linecap="round" stroke-linejoin="round"/>
<path d="M1 7.932L2.66679 15.9318L1.60839 16.716L3.17668 17.9115L1.98115 18.8482L3.54944 20.2794L2.56829 20.9843L4.82416 23.6381L15.0799 20.6386L22.3342 14.5007L3.47025 0.5L1 7.932Z" fill="#763D16" stroke="#763D16" stroke-linecap="round" stroke-linejoin="round"/>
<path d="M47.1545 23.6362L36.8988 20.6367L40.0161 25.3223L35.373 34.3496L41.4917 34.2704H50.6098L47.1545 23.6362Z" fill="#F6851B" stroke="#F6851B" stroke-linecap="round" stroke-linejoin="round"/>
<path d="M15.0779 20.6367L4.82221 23.6362L1.41138 34.2588H10.5102L16.6076 34.338L11.9722 25.3184L15.0779 20.6367Z" fill="#F6851B" stroke="#F6851B" stroke-linecap="round" stroke-linejoin="round"/>
<path d="M29.0013 25.8128L29.6483 14.4987L32.6284 6.43906H19.3926L22.3341 14.4987L23.0197 25.8128L23.2554 29.3821L23.2747 38.166H28.7057L28.7444 29.3821L29.0013 25.8128Z" fill="#F6851B" stroke="#F6851B" stroke-linecap="round" stroke-linejoin="round"/>
</svg>
