<svg width="50" height="32" viewBox="0 0 50 32" fill="none" xmlns="http://www.w3.org/2000/svg">
<g clip-path="url(#clip0_5_108)">
<path d="M10.2417 6.48633C14.197 2.64707 19.4924 0.499695 25.0046 0.499695C30.5168 0.499695 35.8122 2.64707 39.7675 6.48633L40.7494 7.45291C40.8468 7.54627 40.9244 7.65839 40.9773 7.78252C41.0303 7.90664 41.0576 8.0402 41.0576 8.17516C41.0576 8.31011 41.0303 8.44367 40.9773 8.5678C40.9244 8.69192 40.8468 8.80404 40.7494 8.89741L37.3962 12.1816C37.2975 12.278 37.165 12.3319 37.0271 12.3319C36.8891 12.3319 36.7566 12.278 36.6579 12.1816L35.3084 10.8627C32.5495 8.18442 28.8558 6.68635 25.0107 6.68635C21.1657 6.68635 17.4719 8.18442 14.7131 10.8627L13.2686 12.2751C13.1699 12.3714 13.0374 12.4254 12.8994 12.4254C12.7615 12.4254 12.629 12.3714 12.5302 12.2751L9.16025 8.98472C9.06281 8.89135 8.98527 8.77923 8.93229 8.65511C8.87932 8.53099 8.85201 8.39743 8.85201 8.26247C8.85201 8.12752 8.87932 7.99396 8.93229 7.86983C8.98527 7.74571 9.06281 7.63359 9.16025 7.54022L10.2417 6.48633ZM46.7081 13.2738L49.6921 16.198C49.7896 16.2914 49.8671 16.4035 49.9201 16.5277C49.973 16.6518 50.0003 16.7853 50.0003 16.9203C50.0003 17.0553 49.973 17.1888 49.9201 17.3129C49.8671 17.4371 49.7896 17.5492 49.6921 17.6425L36.2259 30.8361C36.0285 31.0288 35.7635 31.1367 35.4876 31.1367C35.2117 31.1367 34.9467 31.0288 34.7492 30.8361L25.1846 21.4706C25.1341 21.4246 25.0683 21.3991 25 21.3991C24.9317 21.3991 24.8659 21.4246 24.8154 21.4706L15.2615 30.8345C15.064 31.0273 14.7991 31.1352 14.5231 31.1352C14.2472 31.1352 13.9822 31.0273 13.7848 30.8345L0.304828 17.6533C0.207383 17.5599 0.129839 17.4478 0.0768647 17.3237C0.0238905 17.1995 -0.00341797 17.066 -0.00341797 16.931C-0.00341797 16.7961 0.0238905 16.6625 0.0768647 16.5384C0.129839 16.4143 0.207383 16.3021 0.304828 16.2088L3.2888 13.2876C3.48624 13.0949 3.75122 12.987 4.02714 12.987C4.30306 12.987 4.56804 13.0949 4.76548 13.2876L14.3301 22.6516C14.3806 22.6975 14.4464 22.723 14.5147 22.723C14.583 22.723 14.6488 22.6975 14.6993 22.6516L24.2563 13.2876C24.4537 13.0949 24.7187 12.987 24.9946 12.987C25.2706 12.987 25.5355 13.0949 25.733 13.2876L35.2976 22.6516C35.3481 22.6975 35.4139 22.723 35.4822 22.723C35.5505 22.723 35.6163 22.6975 35.6668 22.6516L45.2315 13.2876C45.4257 13.0904 45.6902 12.9783 45.9669 12.9757C46.2437 12.9731 46.5102 13.0803 46.7081 13.2738Z" fill="#3A99FB"/>
</g>
<defs>
<clipPath id="clip0_5_108">
<rect width="50" height="30.6363" fill="white" transform="translate(0 0.5)"/>
</clipPath>
</defs>
</svg>
